# File created by Blade
# Date/Time:  Tue Sep 23 19:15:59 2014
# Frame Rate: 120.000 fps
#------------------------------------------------------
:FULLY-SPECIFIED
:DEGREES
2158
root -1.024659 32.927815 -4.721442 52.772377 -33.656614 -27.488797
Spine -28.658736 -6.398538 29.820016
Head 10.600147 -11.024351 0.875674
LeftShoulder 4.789709 44.496815 25.886921
LeftArm 85.318390 17.616146 -44.622250
LeftForeArm 1.093344 -0.000000 65.183821
LeftHand 46.033658 0.000000 -3.708180
LeftHandThumb1 -26.253704 0.000000 33.147579
RightShoulder -0.794432 -52.143700 -9.937069
RightArm 62.557999 3.735981 59.528345
RightForeArm 17.233523 0.000000 40.721032
RightHand 12.870591 -0.000000 6.690579
RightHandThumb1 -24.326973 -0.000000 -32.862282
LeftUpLeg -39.872997 7.949415 11.702143
LeftLeg 21.814623 -0.000000 -0.000000
LeftFoot -14.852359 15.777656 10.287659
LeftToeBase -3.945642 -0.000000 0.000000
RightUpLeg -141.984951 -25.766587 18.666053
RightLeg 126.225479 -0.000000 -0.000000
RightFoot 44.767422 4.095521 3.812323
RightToeBase 47.465599 -0.000000 -0.000000
2159
root -1.003188 32.905135 -4.696292 52.402371 -34.098527 -27.001182
Spine -28.419906 -6.607196 29.328258
Head 10.567063 -10.684426 0.650081
LeftShoulder 4.387056 44.483031 25.575777
LeftArm 85.362953 18.144936 -44.621960
LeftForeArm 1.600174 -0.000000 63.631204
LeftHand 45.656150 -0.000000 -2.785207
LeftHandThumb1 -26.253704 0.000000 33.147579
RightShoulder -0.596289 -51.938140 -10.453192
RightArm 62.965126 3.727894 59.622248
RightForeArm 16.865964 -0.000000 39.732356
RightHand 13.175509 -0.000000 5.770695
RightHandThumb1 -24.326973 -0.000000 -32.862282
LeftUpLeg -39.623414 7.616668 11.226483
LeftLeg 21.628463 -0.000000 -0.000000
LeftFoot -14.796000 15.720833 10.122354
LeftToeBase -4.000145 -0.000000 0.000000
RightUpLeg -140.179812 -24.785531 18.089341
RightLeg 124.521182 -0.000000 -0.000000
RightFoot 44.663762 3.647108 3.877934
RightToeBase 47.856118 -0.000000 -0.000000
2160
root -0.982520 32.892695 -4.687850 52.335835 -34.593959 -26.772835
Spine -28.225402 -6.560462 28.879678
Head 10.561416 -10.337754 0.501609
LeftShoulder 3.968524 44.382321 25.286755
LeftArm 85.254405 18.783824 -44.942685
LeftForeArm 1.719291 -0.000000 61.922890
LeftHand 46.019973 -0.000000 -3.117313
LeftHandThumb1 -26.253704 0.000000 33.147579
RightShoulder -0.400313 -51.686858 -10.915087
RightArm 63.249591 3.757541 59.801258
RightForeArm 16.923513 0.000000 38.795386
RightHand 13.457293 -0.000000 5.076687
RightHandThumb1 -24.326973 -0.000000 -32.862282
LeftUpLeg -39.542622 7.608278 10.815852
LeftLeg 21.510235 -0.000000 -0.000000
LeftFoot -14.760066 15.636868 9.997122
LeftToeBase -4.033715 -0.000000 0.000000
RightUpLeg -138.343324 -23.466018 17.655000
RightLeg 122.696095 -0.000000 -0.000000
RightFoot 44.359398 3.024713 4.041533
RightToeBase 48.028342 -0.000000 -0.000000
2161
root -0.974642 32.879452 -4.680885 52.031994 -35.010336 -26.522402
Spine -27.852366 -6.637386 28.407558
Head 10.559500 -10.096659 0.389946
LeftShoulder 3.524168 44.218694 25.019919
LeftArm 85.123632 19.497201 -45.368097
LeftForeArm 1.996354 -0.000000 60.050742
LeftHand 46.178559 -0.000000 -3.306481
LeftHandThumb1 -26.253704 0.000000 33.147579
RightShoulder -0.251354 -51.448435 -11.301472
RightArm 63.456144 3.857679 60.123018
RightForeArm 17.586684 -0.000000 37.962526
RightHand 13.750709 -0.000000 4.651867
RightHandThumb1 -24.326973 -0.000000 -32.862282
LeftUpLeg -39.258395 7.398590 10.547024
LeftLeg 21.433892 -0.000000 -0.000000
LeftFoot -14.640043 15.775491 9.954899
LeftToeBase -4.218472 -0.000000 0.000000
RightUpLeg -136.290723 -22.322008 17.185462
RightLeg 120.834040 -0.000000 -0.000000
RightFoot 44.235463 2.644465 4.303707
RightToeBase 48.191314 -0.000000 -0.000000
